<?xml version="1.0" standalone="no"?>
<!DOCTYPE svg PUBLIC "-//W3C//DTD SVG 20010904//EN"
 "http://www.w3.org/TR/2001/REC-SVG-20010904/DTD/svg10.dtd">
<svg version="1.0" xmlns="http://www.w3.org/2000/svg"
 width="161.000000pt" height="161.000000pt" viewBox="0 0 161.000000 161.000000"
 preserveAspectRatio="xMidYMid meet">
<metadata>
Created by potrace 1.14, written by Peter Selinger 2001-2017
</metadata>
<g transform="translate(0.000000,161.000000) scale(0.100000,-0.100000)"
fill="#000000" stroke="none">
<path d="M742 1525 c-71 -69 -208 -120 -354 -132 -43 -3 -78 -9 -78 -13 0 -4
9 -15 21 -26 54 -49 67 -140 35 -261 -11 -41 -14 -77 -10 -105 7 -41 8 -38 35
77 32 134 36 199 15 250 l-15 34 37 6 c128 20 252 66 316 117 38 30 40 31 65
15 106 -66 201 -101 316 -115 52 -7 60 -10 57 -27 -15 -90 -12 -155 13 -250
45 -170 54 -224 53 -302 -1 -42 -5 -68 -8 -58 -4 13 -9 8 -18 -21 -6 -20 -8
-43 -4 -51 13 -22 42 51 53 136 10 73 8 84 -31 251 -48 201 -48 239 -2 305
l30 43 -81 7 c-153 13 -285 59 -360 125 -19 16 -39 29 -43 29 -5 -1 -24 -16
-42 -34z m-370 -502 c-3 -16 -7 -22 -10 -15 -4 13 4 42 11 42 2 0 2 -12 -1
-27z"/>
<path d="M765 1434 c-13 -20 -14 -28 -5 -34 6 -4 10 -22 8 -41 l-3 -34 -135
-3 -136 -3 -12 -66 c-7 -36 -27 -123 -44 -192 -17 -69 -31 -139 -30 -155 2
-33 49 -89 68 -82 7 3 14 0 16 -6 5 -15 70 7 92 31 31 34 33 71 9 141 -13 36
-21 52 -18 36 3 -15 9 -41 12 -57 4 -21 1 -29 -8 -30 -8 0 -23 -2 -34 -4 -11
-3 -26 3 -32 12 -12 16 -13 16 -13 0 0 -13 -9 -17 -40 -17 -22 0 -40 2 -40 5
0 11 62 271 68 285 4 8 9 -46 12 -120 l6 -135 4 135 5 135 25 -90 c13 -49 26
-83 27 -75 1 8 -10 60 -26 115 -16 55 -26 103 -24 108 2 4 56 7 119 7 63 0
114 -3 114 -7 0 -5 -7 -17 -15 -27 -8 -11 -15 -27 -15 -35 1 -9 7 -2 14 14 16
36 35 54 102 90 41 23 57 27 87 21 20 -4 37 -11 37 -15 0 -13 -57 -31 -96 -31
-41 0 -93 -42 -92 -73 0 -12 0 -33 -1 -47 l-2 -25 -19 24 c-24 28 -26 20 -4
-14 13 -21 14 -38 3 -145 -12 -119 -12 -121 -41 -136 -17 -9 -27 -18 -24 -21
8 -9 77 47 71 58 -3 5 0 6 8 3 8 -3 18 0 22 6 4 6 6 83 5 171 0 104 3 159 10
159 5 0 10 -16 10 -35 0 -27 5 -38 23 -45 39 -16 76 -54 92 -95 l15 -40 -5 35
c-3 26 -18 47 -60 85 -44 41 -55 57 -55 82 0 17 6 33 14 36 28 11 236 20 236
10 0 -5 -9 -51 -20 -102 -12 -52 -19 -99 -17 -105 2 -6 9 19 16 54 7 36 16 70
19 75 4 6 10 -33 13 -85 l5 -95 2 100 c3 111 11 112 38 2 9 -37 18 -66 21 -63
3 2 -10 59 -28 125 l-33 121 -32 0 c-18 0 -39 6 -46 13 -7 7 -22 14 -33 15
-11 1 -37 4 -58 8 -26 4 -44 1 -62 -10 -14 -9 -30 -14 -35 -11 -14 9 -12 53 2
57 7 3 5 13 -7 31 -22 34 -28 34 -50 1z m-255 -574 c0 -5 -5 -10 -11 -10 -5 0
-7 5 -4 10 3 6 8 10 11 10 2 0 4 -4 4 -10z"/>
<path d="M821 1143 c-1 -12 8 -27 18 -33 11 -5 22 -22 24 -37 l4 -28 2 27 c0
15 -7 35 -18 45 -10 10 -21 25 -24 33 -4 10 -6 8 -6 -7z"/>
<path d="M832 1065 c0 -16 2 -22 5 -12 2 9 2 23 0 30 -3 6 -5 -1 -5 -18z"/>
<path d="M1021 1064 c0 -11 3 -14 6 -6 3 7 2 16 -1 19 -3 4 -6 -2 -5 -13z"/>
<path d="M1151 1063 c-1 -6 3 -22 8 -35 4 -13 11 -35 15 -50 6 -27 5 -28 -34
-28 -25 0 -40 5 -40 13 0 7 -4 6 -10 -3 -5 -9 -25 -17 -44 -18 -33 -2 -36 0
-37 25 -1 25 -2 23 -11 -11 -26 -98 82 -166 160 -101 42 35 46 68 18 150 -14
39 -25 65 -25 58z m-113 -175 c-2 -7 12 -15 32 -19 19 -3 26 -7 15 -8 l-20 -2
20 -10 c16 -7 14 -8 -10 -4 -31 6 -58 32 -49 46 8 13 14 11 12 -3z m112 -23
c-7 -8 -17 -15 -23 -15 -6 0 -2 7 9 15 25 19 30 19 14 0z"/>
<path d="M1012 1020 c0 -14 2 -19 5 -12 2 6 2 18 0 25 -3 6 -5 1 -5 -13z"/>
<path d="M341 975 c-1 -11 -4 -31 -6 -45 l-6 -25 11 25 c6 13 9 33 7 45 -4 19
-4 19 -6 0z"/>
<path d="M877 931 c-24 -36 -25 -41 -13 -87 8 -33 14 -43 19 -32 3 10 2 20 -3
23 -17 10 -11 62 11 99 28 48 18 46 -14 -3z"/>
<path d="M1460 929 c-17 -27 -20 -43 -15 -81 4 -30 2 -48 -5 -48 -5 0 -10 9
-10 19 0 11 -11 33 -25 48 l-24 28 -1 -40 c0 -32 7 -47 35 -77 30 -32 33 -38
19 -49 -13 -10 -17 -10 -25 2 -5 8 -9 19 -9 25 0 6 -9 19 -20 29 -20 18 -20
17 -20 -28 0 -37 5 -49 26 -66 36 -29 57 -26 100 11 35 31 36 32 13 40 -22 8
-22 9 -3 31 52 58 52 60 11 55 -41 -4 -44 -1 -22 28 16 21 19 72 6 93 -7 11
-14 7 -31 -20z m30 -43 c0 -3 -4 -8 -10 -11 -5 -3 -10 -1 -10 4 0 6 5 11 10
11 6 0 10 -2 10 -4z"/>
<path d="M122 905 c12 -14 23 -25 25 -25 2 0 -4 11 -13 25 -9 14 -20 25 -25
25 -5 0 1 -11 13 -25z"/>
<path d="M323 855 c0 -27 2 -38 4 -22 2 15 2 37 0 50 -2 12 -4 0 -4 -28z"/>
<path d="M100 863 c0 -12 5 -25 11 -28 16 -11 17 -2 2 25 -12 24 -13 24 -13 3z"/>
<path d="M192 848 c-7 -7 -12 -17 -12 -22 0 -6 4 -4 10 4 13 21 22 7 14 -24
-7 -30 -20 -34 -27 -8 -4 15 -5 15 -6 -1 0 -10 -7 -17 -13 -14 -8 2 -12 18
-11 38 l2 34 -10 -34 c-7 -23 -13 -31 -18 -22 -5 7 -20 11 -35 9 l-27 -3 35
-41 c19 -23 32 -45 28 -49 -4 -5 -1 -5 5 -1 9 5 11 2 7 -8 -3 -9 -1 -16 5 -16
6 0 11 5 11 11 0 5 4 7 10 4 6 -4 5 -11 -3 -20 -10 -11 -16 -10 -34 7 -12 12
-20 25 -17 29 3 5 -2 6 -10 3 -28 -11 37 -68 79 -69 44 -2 45 12 3 47 l-33 27
33 29 c21 19 35 42 39 66 6 37 -3 46 -25 24z m-77 -78 c3 -11 11 -20 16 -20 5
0 9 -5 9 -11 0 -8 -5 -7 -16 1 -21 18 -37 50 -25 50 5 0 13 -9 16 -20z m54 3
c14 11 14 10 2 -6 -10 -13 -17 -15 -27 -6 -8 6 -14 14 -14 17 0 3 5 1 12 -6 9
-9 15 -9 27 1z m21 -92 c0 -5 -7 -12 -16 -15 -14 -5 -15 -4 -4 9 14 17 20 19
20 6z"/>
<path d="M750 812 c-25 -12 -45 -28 -45 -36 0 -7 -6 -20 -13 -28 -7 -9 -10
-22 -7 -30 3 -8 -3 -25 -15 -38 -11 -13 -20 -18 -20 -13 0 6 7 16 15 23 8 7
15 17 15 23 0 6 -10 2 -21 -10 -12 -12 -19 -28 -16 -36 7 -17 45 -15 59 4 8
11 9 10 4 -4 -5 -15 1 -17 47 -15 l52 2 -3 76 c-4 115 0 108 -52 82z"/>
<path d="M336 790 c-4 -30 -2 -59 8 -85 8 -22 15 -33 15 -26 1 12 4 12 13 3
10 -10 10 -14 0 -20 -9 -6 -5 -20 17 -53 45 -70 97 -114 205 -175 122 -69 188
-113 200 -132 8 -13 10 -13 20 -1 19 25 88 75 185 133 101 62 171 114 171 128
0 5 -6 6 -12 2 -8 -4 -10 -3 -5 2 5 5 13 9 19 9 6 0 18 11 27 25 9 14 11 21 4
16 -16 -9 -16 -2 -3 27 10 20 9 20 -2 3 -32 -49 -101 -114 -155 -146 -32 -19
-96 -59 -143 -90 -47 -30 -88 -56 -92 -58 -4 -2 -33 14 -65 36 -86 57 -235
137 -257 137 -11 0 -21 7 -23 15 -4 13 -3 13 6 0 5 -8 12 -12 14 -10 3 3 -13
25 -34 49 -22 24 -37 36 -34 25 6 -18 6 -18 -9 0 -18 23 -21 40 -5 31 6 -4 1
12 -11 35 -12 24 -27 70 -34 104 l-13 61 -7 -45z m112 -236 c-4 -3 -12 5 -18
18 -12 22 -12 22 6 6 10 -10 15 -20 12 -24z m237 -144 c3 -6 -1 -7 -9 -4 -18
7 -21 14 -7 14 6 0 13 -4 16 -10z"/>
<path d="M980 806 c0 -3 9 -10 20 -16 11 -6 20 -8 20 -6 0 3 -9 10 -20 16 -11
6 -20 8 -20 6z"/>
<path d="M660 784 c0 -13 18 -39 24 -34 2 3 -2 14 -10 24 -8 11 -14 16 -14 10z"/>
<path d="M880 785 c0 -10 32 -59 59 -87 25 -28 25 -28 3 -29 -35 -2 -40 -3
-49 -12 -4 -5 -3 -8 2 -7 25 5 45 -1 45 -15 0 -8 5 -15 10 -15 6 0 15 -10 20
-22 8 -22 9 -21 10 7 1 26 3 27 9 10 5 -11 7 -23 4 -27 -2 -5 1 -8 6 -8 6 0
11 11 11 25 0 20 5 25 25 25 14 0 25 5 25 10 0 6 -19 10 -43 10 -37 0 -44 4
-55 28 -11 27 -82 119 -82 107z"/>
<path d="M219 763 c-8 -9 -9 -14 -2 -10 6 4 13 1 16 -5 3 -7 4 -3 4 10 -1 26
-1 26 -18 5z"/>
<path d="M961 756 c10 -9 69 -36 69 -32 0 6 -55 36 -66 36 -4 0 -5 -2 -3 -4z"/>
<path d="M197 727 c-4 -10 -2 -17 3 -17 6 0 10 -7 10 -15 0 -20 16 -19 24 1 9
23 7 31 -4 14 -7 -12 -11 -10 -18 9 -7 20 -10 21 -15 8z"/>
<path d="M1070 736 c0 -2 8 -10 18 -17 15 -13 16 -12 3 4 -13 16 -21 21 -21
13z"/>
<path d="M1055 700 c10 -11 20 -20 23 -20 3 0 -3 9 -13 20 -10 11 -20 20 -23
20 -3 0 3 -9 13 -20z"/>
<path d="M1315 692 c-4 -19 0 -42 11 -66 16 -32 22 -36 55 -36 26 0 47 8 69
26 39 33 25 46 -40 38 -44 -5 -46 -5 -55 27 -13 43 -32 48 -40 11z"/>
<path d="M250 674 c-6 -14 -10 -30 -10 -35 0 -6 -17 -8 -44 -4 -24 4 -52 3
-61 -2 -27 -15 38 -65 79 -62 17 2 38 -1 45 -5 10 -7 12 -5 6 3 -4 7 1 27 10
45 12 22 16 42 11 59 -8 34 -24 34 -36 1z m22 -42 c-8 -22 -21 6 -14 31 5 20
6 20 12 1 4 -10 5 -25 2 -32z"/>
<path d="M1281 632 c-15 -27 -14 -85 1 -100 10 -10 8 -17 -8 -32 -19 -20 -19
-20 -19 20 0 57 -19 71 -40 30 -20 -38 -13 -82 18 -110 32 -31 77 -25 136 17
13 9 -27 33 -56 33 -21 0 -32 4 -28 10 4 6 21 8 40 4 24 -4 43 0 74 18 22 12
41 26 41 30 0 11 -47 21 -75 16 -14 -3 -25 -1 -25 3 0 5 -5 8 -11 7 -6 -2 -12
6 -13 17 -1 11 -7 29 -13 39 -10 19 -11 19 -22 -2z"/>
<path d="M550 628 c0 -11 42 -9 60 2 11 7 5 9 -22 7 -21 -1 -38 -5 -38 -9z"/>
<path d="M302 610 c-6 -14 -13 -33 -16 -42 -4 -12 -15 -16 -49 -15 -25 1 -51
-4 -61 -12 -15 -13 -14 -15 14 -32 16 -10 40 -21 53 -24 26 -7 33 -33 9 -31
-8 1 -17 -4 -19 -9 -5 -17 61 -36 114 -33 40 3 48 6 50 23 0 11 2 35 4 53 2
32 -17 82 -32 82 -12 0 -22 -65 -14 -92 7 -21 6 -22 -10 -8 -10 8 -29 13 -43
12 -15 -3 -22 0 -18 7 4 6 13 11 20 11 14 0 36 42 36 68 -1 9 -7 28 -14 42
l-14 25 -10 -25z m28 -147 c0 -1 -10 -7 -21 -14 -13 -6 -19 -7 -15 -1 3 6 0
12 -6 15 -7 2 -1 4 14 3 16 0 28 -2 28 -3z"/>
<path d="M580 571 c-8 -6 -18 -7 -22 -5 -4 3 -8 0 -8 -5 0 -17 37 -13 44 4 6
17 6 18 -14 6z"/>
<path d="M1000 570 c-11 -7 -5 -10 23 -10 20 0 37 5 37 10 0 13 -40 13 -60 0z"/>
<path d="M1155 486 c-16 -24 -23 -91 -11 -103 3 -3 -2 -12 -12 -20 -16 -12
-16 -13 0 -7 9 3 27 -1 40 -10 12 -9 29 -16 38 -16 19 0 100 33 100 41 0 15
-35 33 -73 38 -40 6 -41 7 -43 44 -1 52 -18 66 -39 33z"/>
<path d="M421 477 c-6 -15 -10 -37 -8 -49 2 -18 -5 -23 -35 -28 -35 -6 -78
-34 -78 -50 0 -9 71 -30 102 -30 14 0 31 7 39 16 7 8 21 13 32 10 17 -4 17 -3
4 12 -12 13 -13 22 -5 35 12 22 4 54 -21 87 l-20 25 -10 -28z"/>
<path d="M1065 409 c-20 -24 -25 -41 -23 -68 l3 -36 -117 -57 -118 -57 -87 36
c-138 58 -147 64 -154 109 -7 52 -27 87 -45 80 -9 -3 -12 -1 -9 4 3 6 -1 10
-10 10 -14 0 -16 -9 -13 -47 3 -44 2 -47 -28 -55 -31 -8 -82 -53 -72 -64 3 -3
32 -8 63 -11 44 -5 65 -2 90 11 32 18 33 17 103 -18 40 -20 86 -45 103 -55
l31 -19 -31 -16 c-43 -23 -101 -75 -101 -92 0 -33 29 -21 88 36 61 60 62 60
90 46 15 -8 47 -36 71 -61 39 -42 45 -45 59 -32 22 23 10 41 -57 83 -33 22
-61 41 -61 44 0 3 45 29 100 57 l99 53 36 -21 c33 -20 40 -20 83 -9 26 7 50
16 55 20 13 11 -17 40 -58 54 -40 14 -40 15 -37 60 5 56 -13 61 -53 15z"/>
</g>
</svg>
